<svg width="22" height="24" viewBox="0 0 22 24" fill="none" xmlns="http://www.w3.org/2000/svg">
<path d="M2.0624 -1.52588e-05C0.921173 -1.52588e-05 -6.10352e-05 1.00503 -6.10352e-05 2.24708V21.7194C-6.10352e-05 22.9615 0.922548 23.9665 2.0624 23.9665H3.43738C4.57449 23.9665 5.49847 22.9615 5.49847 21.7194V2.24708C5.49847 1.00503 4.57449 -1.52588e-05 3.43601 -1.52588e-05H2.06103H2.0624ZM8.93454 -1.52588e-05C7.79606 -1.52588e-05 6.87207 1.00503 6.87207 2.24708V21.7194C6.87207 22.9615 7.79606 23.9665 8.93454 23.9665H10.3095C11.448 23.9665 12.3706 22.9615 12.3706 21.7194V2.24708C12.3706 1.00653 11.448 -1.52588e-05 10.3081 -1.52588e-05H8.93316H8.93454ZM18.8619 6.23575C18.799 5.9388 18.6816 5.65887 18.5166 5.41294C18.3517 5.167 18.1426 4.96019 17.9022 4.80505C17.6617 4.64991 17.3949 4.54967 17.1179 4.51041C16.8409 4.47116 16.5594 4.4937 16.2907 4.57668L15.2663 4.8917C14.7659 5.04606 14.3375 5.40124 14.0671 5.88594C13.7968 6.37064 13.7045 6.94896 13.8088 7.50481L16.5629 22.2039C16.6192 22.5019 16.7302 22.7843 16.8893 23.034C17.0485 23.2838 17.2524 23.4958 17.4887 23.6572C17.7251 23.8186 17.989 23.926 18.2644 23.973C18.5399 24.02 18.8213 24.0055 19.0915 23.9305L20.4458 23.5555C21.5321 23.2555 22.1976 22.0644 21.9473 20.8749L18.8619 6.23425V6.23575Z" fill="white"/>
</svg>
