<svg width="34" height="39" viewBox="0 0 34 39" fill="none" xmlns="http://www.w3.org/2000/svg">
<path d="M33.7142 6.12509V15.3126C33.7142 15.5513 33.6584 15.7867 33.5513 16C33.4441 16.2134 33.2886 16.3987 33.0971 16.5412C32.9055 16.6837 32.6833 16.7794 32.4482 16.8208C32.2131 16.8621 31.9716 16.8479 31.7429 16.7793L18.4017 12.7768V29.0938C18.4048 31.2014 17.6842 33.246 16.3605 34.886C15.0368 36.526 13.1902 37.6618 11.1295 38.1036C9.06885 38.5454 6.91894 38.2663 5.03931 37.3131C3.15968 36.3599 1.66426 34.7903 0.803103 32.8667C-0.0580544 30.9432 -0.232749 28.7823 0.308229 26.7454C0.849208 24.7084 2.07307 22.919 3.77516 21.6762C5.47726 20.4334 7.55442 19.8126 9.65933 19.9177C11.7642 20.0227 13.7693 20.8471 15.3392 22.2532V10.7544C15.3387 10.7312 15.3387 10.7079 15.3392 10.6844V1.53134C15.3392 1.29262 15.395 1.0572 15.5022 0.84388C15.6093 0.630563 15.7649 0.445254 15.9564 0.302751C16.1479 0.160249 16.3701 0.0644997 16.6052 0.0231481C16.8403 -0.0182035 17.0819 -0.00401141 17.3105 0.0645911L32.623 4.65834C32.9384 4.75298 33.215 4.94678 33.4115 5.211C33.6081 5.47522 33.7143 5.79577 33.7142 6.12509Z" fill="white"/>
</svg>
